<svg xmlns="http://www.w3.org/2000/svg" viewBox="0 0 474 100" width="474" height="100" role="img" aria-label="PowerTech">
  <title>PowerTech — logo for dark backgrounds</title>
  <!-- mark -->
  <rect width="100" height="100" rx="20" fill="#F25749"/>
  <path d="M52 18 L38 50 L47 50 L42 82 L62 47 L51 47 Z" fill="#FFFFFF"/>
  <!-- wordmark: Instrument Sans Bold, outlined -->
  <g transform="translate(130.9 61.8)">
    <path fill="#FFFFFF" d="M12.65 0L3.10 0L3.10-44.64L24.30-44.64Q29.26-44.64 32.83-42.90Q36.39-41.17 38.35-38.07Q40.30-34.97 40.30-30.81L40.30-30.81Q40.30-26.66 38.32-23.50Q36.33-20.34 32.77-18.57Q29.20-16.80 24.30-16.80L24.30-16.80L10.66-16.80L10.66-24.12L23.81-24.12Q27.09-24.12 28.92-25.95Q30.75-27.78 30.75-30.75L30.75-30.75Q30.75-33.73 28.92-35.53Q27.09-37.32 23.81-37.32L23.81-37.32L12.65-37.32L12.65 0ZM60.39 0.62L60.39 0.62Q55.18 0.62 51.24-1.46Q47.31-3.53 45.11-7.29Q42.90-11.04 42.90-15.93L42.90-15.93Q42.90-20.83 45.11-24.49Q47.31-28.15 51.24-30.19Q55.18-32.24 60.39-32.24L60.39-32.24Q65.66-32.24 69.59-30.19Q73.53-28.15 75.70-24.49Q77.87-20.83 77.87-15.93L77.87-15.93Q77.87-11.04 75.67-7.29Q73.47-3.53 69.53-1.46Q65.60 0.62 60.39 0.62ZM60.39-6.70L60.39-6.70Q62.56-6.70 64.33-7.81Q66.09-8.93 67.15-11.01Q68.20-13.08 68.20-16.00L68.20-16.00Q68.20-20.27 65.94-22.60Q63.67-24.92 60.39-24.92L60.39-24.92Q57.10-24.92 54.84-22.57Q52.58-20.21 52.58-16.00L52.58-16.00Q52.58-13.08 53.63-11.01Q54.68-8.93 56.45-7.81Q58.22-6.70 60.39-6.70ZM98.33 0L89.40 0L79.73-31.62L89.53-31.62L94.36-9.55L94.12-9.55L100.19-31.62L108.87-31.62L115.01-9.55L114.76-9.55L119.54-31.62L129.08-31.62L119.41 0L110.48 0L104.28-22.01L104.53-22.01L98.33 0ZM148.30 0.62L148.30 0.62Q143.03 0.62 139.13-1.46Q135.22-3.53 133.08-7.25Q130.94-10.97 130.94-15.81L130.94-15.81Q130.94-20.71 133.08-24.40Q135.22-28.09 139.07-30.16Q142.91-32.24 147.99-32.24L147.99-32.24Q152.89-32.24 156.49-30.26Q160.08-28.27 162.07-24.74Q164.05-21.20 164.05-16.43L164.05-16.43Q164.05-15.44 163.99-14.60Q163.93-13.76 163.80-13.02L163.80-13.02L136.40-13.02L136.40-19.16L156.30-19.16L154.69-18.04Q154.69-21.89 152.86-23.71Q151.03-25.54 147.87-25.54L147.87-25.54Q144.21-25.54 142.20-23.06Q140.18-20.58 140.18-15.62L140.18-15.62Q140.18-10.79 142.20-8.43Q144.21-6.08 148.24-6.08L148.24-6.08Q150.47-6.08 152.09-6.82Q153.70-7.56 154.50-9.24L154.50-9.24L163.25-9.24Q161.70-4.65 157.94-2.02Q154.19 0.62 148.30 0.62ZM178.31 0L169.01 0L169.01-31.62L178.13-31.62L178.13-24.18L178.31-24.18L178.31 0ZM178.31-16.49L178.31-16.49L177.51-23.99Q178.62-28.02 181.16-30.13Q183.71-32.24 187.49-32.24L187.49-32.24Q188.67-32.24 189.22-31.99L189.22-31.99L189.22-23.31Q188.91-23.44 188.36-23.47Q187.80-23.50 186.99-23.50L186.99-23.50Q182.53-23.50 180.42-21.92Q178.31-20.34 178.31-16.49ZM215.57 0L206.03 0L206.03-37.32L191.46-37.32L191.46-44.64L230.14-44.64L230.14-37.32L215.57-37.32L215.57 0ZM250.23 0.62L250.23 0.62Q244.96 0.62 241.06-1.46Q237.15-3.53 235.01-7.25Q232.87-10.97 232.87-15.81L232.87-15.81Q232.87-20.71 235.01-24.40Q237.15-28.09 240.99-30.16Q244.84-32.24 249.92-32.24L249.92-32.24Q254.82-32.24 258.42-30.26Q262.01-28.27 264.00-24.74Q265.98-21.20 265.98-16.43L265.98-16.43Q265.98-15.44 265.92-14.60Q265.86-13.76 265.73-13.02L265.73-13.02L238.33-13.02L238.33-19.16L258.23-19.16L256.62-18.04Q256.62-21.89 254.79-23.71Q252.96-25.54 249.80-25.54L249.80-25.54Q246.14-25.54 244.13-23.06Q242.11-20.58 242.11-15.62L242.11-15.62Q242.11-10.79 244.13-8.43Q246.14-6.08 250.17-6.08L250.17-6.08Q252.40-6.08 254.01-6.82Q255.63-7.56 256.43-9.24L256.43-9.24L265.17-9.24Q263.62-4.65 259.87-2.02Q256.12 0.62 250.23 0.62ZM285.26 0.62L285.26 0.62Q280.30 0.62 276.52-1.49Q272.74-3.60 270.60-7.32Q268.46-11.04 268.46-15.81L268.46-15.81Q268.46-20.58 270.60-24.30Q272.74-28.02 276.52-30.13Q280.30-32.24 285.26-32.24L285.26-32.24Q289.42-32.24 292.73-30.72Q296.05-29.20 298.19-26.54Q300.33-23.87 300.95-20.27L300.95-20.27L291.96-20.27Q291.28-22.57 289.51-23.75Q287.74-24.92 285.39-24.92L285.39-24.92Q283.15-24.92 281.51-23.81Q279.87-22.69 279-20.65Q278.13-18.60 278.13-15.81L278.13-15.81Q278.13-13.02 279-10.97Q279.87-8.93 281.51-7.81Q283.15-6.70 285.39-6.70L285.39-6.70Q287.74-6.70 289.51-7.87Q291.28-9.05 291.96-11.35L291.96-11.35L300.95-11.35Q300.33-7.75 298.19-5.08Q296.05-2.42 292.73-0.90Q289.42 0.62 285.26 0.62ZM315.08 0L305.78 0L305.78-44.64L315.08-44.64L315.08 0ZM337.09 0L327.79 0L327.79-19.59Q327.79-22.20 326.46-23.50Q325.13-24.80 322.59-24.80L322.59-24.80Q320.42-24.80 318.71-23.81Q317.01-22.82 316.05-21.08Q315.08-19.34 315.08-16.99L315.08-16.99L314.28-24.61Q315.83-28.09 318.84-30.16Q321.84-32.24 326.24-32.24L326.24-32.24Q331.51-32.24 334.30-29.29Q337.09-26.35 337.09-21.39L337.09-21.39L337.09 0Z"/>
  </g>
  <!-- measurement pulse line -->
  <path d="M134 78H334.4L344.5 69.6L354.5 82.2L362.8 78H444.9" fill="none" stroke="#FFFFFF" stroke-opacity=".55" stroke-width="2.2" stroke-linecap="round" stroke-linejoin="round"/>
  <circle cx="454.7" cy="78" r="4.3" fill="#F25749"/>
</svg>
